<?xml version="1.0" encoding="UTF-8"?>
<svg id="Capa_2" data-name="Capa 2" xmlns="http://www.w3.org/2000/svg" viewBox="0 0 968.54 374">
  <defs>
    <style>
      .cls-1 {
        fill: #7e7d23;
      }
    </style>
  </defs>
  <g id="Capa_1-2" data-name="Capa 1">
    <g>
      <g>
        <path class="cls-1" d="M2.06,224.35V41.26h46.33l57.7,150.36h1.39l56.87-150.36h44.39v183.09h-28.57l1.94-152.57h-2.22l-60.75,152.57h-27.74L31.19,71.77h-2.22l1.66,152.57H2.06Z"/>
        <path class="cls-1" d="M306.38,227.95c-13.87,0-26.17-2.96-36.9-8.88-10.73-5.92-19.05-14.52-24.97-25.8-5.92-11.28-8.88-25.06-8.88-41.33s3.09-30.79,9.29-41.89c6.19-11.1,14.61-19.46,25.24-25.11,10.63-5.64,22.61-8.46,35.92-8.46s25.89,2.91,36.62,8.74c10.72,5.83,19.18,14.38,25.38,25.66,6.19,11.28,9.29,25.24,9.29,41.89s-3.15,30.79-9.43,41.89c-6.29,11.1-14.8,19.42-25.52,24.97-10.73,5.55-22.75,8.32-36.06,8.32ZM307.49,204.37c8.5,0,15.67-1.99,21.5-5.96,5.83-3.98,10.31-9.75,13.45-17.34,3.14-7.58,4.72-16.55,4.72-26.91,0-11.1-1.66-20.62-4.99-28.57-3.33-7.95-8.04-14.05-14.15-18.31-6.1-4.25-13.69-6.38-22.75-6.38-7.95,0-14.94,1.94-20.94,5.83-6.01,3.88-10.59,9.57-13.73,17.06-3.15,7.49-4.72,16.69-4.72,27.6,0,16.64,3.7,29.64,11.1,38.98,7.39,9.34,17.57,14.01,30.52,14.01Z"/>
        <path class="cls-1" d="M346.78,28.68v23.16l-.66.42c-24.3,15.46-55.37,15.37-79.58-.24l-.28-.18v-23.16h0c24.34,15.85,55.72,15.95,80.15.24l.37-.24Z"/>
        <path class="cls-1" d="M306.52,28.68c-3.86,0-7.15-1.4-9.87-4.21-2.72-2.8-4.08-6.22-4.08-10.26s1.36-7.63,4.08-10.26c2.72-2.63,6.01-3.95,9.87-3.95s7.15,1.31,9.87,3.95c2.72,2.63,4.08,6.05,4.08,10.26s-1.36,7.46-4.08,10.26c-2.72,2.81-6.01,4.21-9.87,4.21Z"/>
        <path class="cls-1" d="M401.8,224.35V28.5h29.96v110.96c6.66-3.88,13.13-8.27,19.42-13.18,6.28-4.9,12.07-10.03,17.34-15.4,5.27-5.36,9.89-10.68,13.87-15.95,3.98-5.27,7.07-10.22,9.29-14.84h34.95c-3.33,7.03-7.54,14.06-12.62,21.08-5.09,7.03-10.92,13.5-17.48,19.42-6.57,5.92-13.69,11.01-21.36,15.26-7.68,4.26-15.49,7.21-23.44,8.88v3.88c9.99-1.11,18.73-.23,26.22,2.63,7.49,2.87,13.96,7.07,19.42,12.62,5.45,5.55,10.22,11.93,14.28,19.14,4.07,7.21,7.95,14.7,11.65,22.47l8.05,18.86h-33.29l-5.55-13.04c-4.26-9.43-8.65-17.84-13.18-25.24-4.53-7.39-9.89-13.18-16.09-17.34-6.2-4.16-13.83-6.24-22.89-6.24h-8.6v61.86h-29.96Z"/>
        <path class="cls-1" d="M603.2,227.95c-9.99,0-18.82-1.02-26.49-3.05-7.68-2.03-14.19-4.95-19.56-8.74-5.37-3.79-9.57-8.32-12.62-13.59-3.05-5.27-4.76-11.14-5.13-17.62l23.86-8.05c.18,5.37,1.94,10.13,5.27,14.29s8.09,7.45,14.29,9.85c6.19,2.41,13.64,3.61,22.33,3.61,10.17,0,18.03-1.66,23.58-4.99,5.55-3.33,8.32-7.95,8.32-13.87,0-4.62-1.53-8.23-4.58-10.82-3.05-2.59-7.4-4.72-13.04-6.38-5.64-1.66-12.25-3.23-19.84-4.72-6.66-1.29-13.36-2.91-20.11-4.85-6.75-1.94-13.04-4.48-18.86-7.63-5.83-3.14-10.4-7.3-13.73-12.48-3.33-5.18-4.99-11.65-4.99-19.42,0-8.5,2.26-15.95,6.8-22.33,4.53-6.38,11.23-11.42,20.11-15.12,8.88-3.7,19.42-5.55,31.63-5.55s22.28,1.71,30.79,5.13c8.5,3.42,15.3,8.32,20.39,14.7,5.08,6.38,8.18,13.83,9.29,22.33l-24.97,7.77c-.37-6.1-2.08-11.05-5.13-14.84-3.05-3.79-7.21-6.7-12.48-8.74-5.27-2.03-11.42-3.05-18.45-3.05-9.25,0-16.5,1.66-21.78,4.99-5.27,3.33-7.91,7.95-7.91,13.87,0,4.44,1.62,8,4.85,10.68,3.23,2.68,7.67,4.81,13.32,6.38,5.64,1.57,12.07,3.19,19.28,4.86,7.21,1.3,14.24,2.91,21.08,4.85,6.84,1.94,13.04,4.4,18.59,7.35,5.55,2.96,9.89,6.93,13.04,11.93,3.14,4.99,4.72,11.37,4.72,19.14,0,9.62-2.45,17.71-7.35,24.27-4.9,6.57-12.02,11.51-21.36,14.84-9.34,3.33-20.39,4.99-33.15,4.99Z"/>
        <path class="cls-1" d="M688.09,224.35V28.77h30.51v44.94c0,4.07-.1,8.14-.28,12.21-.19,4.07-.56,8.23-1.11,12.48-.56,4.26-1.11,8.56-1.66,12.9-.56,4.35-1.21,8.65-1.94,12.9h5.27c2.77-10.35,6.24-19.09,10.4-26.22,4.16-7.12,9.38-12.48,15.67-16.09,6.28-3.61,14.05-5.41,23.3-5.41,16.46,0,28.8,5.83,37.03,17.48,8.23,11.65,12.35,28.95,12.35,51.87v78.51h-30.24v-74.35c0-16.46-2.45-28.53-7.35-36.2-4.9-7.67-12.35-11.51-22.33-11.51-8.14,0-14.94,2.45-20.39,7.35-5.46,4.9-9.76,11.42-12.9,19.56-3.15,8.14-5.18,17.39-6.1,27.74v67.41h-30.24Z"/>
        <path class="cls-1" d="M881.72,227.95c-8.14,0-15.31-1.57-21.5-4.71-6.2-3.14-11.14-7.72-14.84-13.73-3.7-6.01-5.55-13.45-5.55-22.33,0-7.39,1.34-13.73,4.02-19,2.68-5.27,6.8-9.66,12.34-13.18,5.55-3.51,12.53-6.47,20.94-8.88,8.41-2.4,18.45-4.34,30.1-5.83,6.66-1.11,12.02-2.08,16.09-2.91,4.07-.83,7.08-2.31,9.02-4.44,1.94-2.12,2.91-5.22,2.91-9.29,0-6.29-2.22-11.69-6.66-16.23-4.44-4.53-11.47-6.8-21.08-6.8-5.37,0-10.59.93-15.67,2.77-5.09,1.85-9.57,4.86-13.45,9.02-3.88,4.16-6.48,9.76-7.77,16.78l-27.19-8.88c1.85-6.84,4.58-12.94,8.18-18.31,3.61-5.36,8.14-9.99,13.59-13.87,5.45-3.88,11.88-6.8,19.28-8.74,7.39-1.94,15.35-2.91,23.86-2.91,12.76,0,23.35,2.08,31.76,6.24,8.41,4.16,14.66,10.64,18.73,19.42,4.07,8.79,6.1,20.02,6.1,33.71v29.41c.18,6.1.37,12.58.56,19.42.18,6.84.56,13.59,1.11,20.25.56,6.66,1.2,13.13,1.94,19.42h-27.46c-.56-5.55-1.07-11.33-1.53-17.34-.46-6.01-.88-11.97-1.25-17.89h-3.88c-2.77,6.84-6.52,13.27-11.23,19.28-4.72,6.01-10.5,10.78-17.34,14.29-6.84,3.51-14.89,5.27-24.13,5.27ZM892.26,204.93c3.7,0,7.58-.69,11.65-2.08,4.07-1.39,8.04-3.42,11.93-6.1,3.88-2.68,7.58-6.19,11.1-10.54,3.51-4.34,6.47-9.39,8.88-15.12v-26.08l6.93,1.39c-2.96,2.77-6.84,4.85-11.65,6.24-4.81,1.39-9.99,2.54-15.53,3.47-5.55.93-11.05,1.85-16.51,2.77-5.46.93-10.45,2.27-14.98,4.02-4.53,1.76-8.14,4.26-10.82,7.49-2.68,3.24-4.02,7.63-4.02,13.18,0,6.84,2.12,12.11,6.38,15.81,4.25,3.7,9.8,5.55,16.64,5.55Z"/>
      </g>
      <g>
        <path class="cls-1" d="M48.75,335.14c.65,0,1.53.26,2.64.78-.07.46-.39,1.34-.98,2.64-.59,1.31-1.27,2.71-2.06,4.21-.78,1.5-1.52,2.84-2.2,4.01s-1.22,1.93-1.62,2.25c-2.61,1.31-5.35,2.2-8.22,2.69-2.87.49-6.36.73-10.47.73-5.16,0-9.68-1.19-13.56-3.57-3.88-2.38-6.9-5.56-9.05-9.54-2.15-3.98-3.23-8.32-3.23-13.02,0-6,1.08-11.39,3.23-16.15,2.15-4.76,5.06-8.81,8.71-12.14,3.65-3.33,7.8-5.86,12.43-7.59,4.63-1.73,9.43-2.53,14.39-2.4,2.81.07,5.48.34,8.03.83,2.55.49,4.99,1.03,7.34,1.62-.07,1.11-.15,2.61-.24,4.5-.1,1.89-.2,3.72-.29,5.48-.1,1.76-.21,3.1-.34,4.01,0,.26-.26.39-.78.39-.26,0-.6-.02-1.03-.05-.42-.03-.83-.15-1.22-.34.2-2.55-.34-4.85-1.62-6.9-1.27-2.06-3.02-3.67-5.24-4.85-2.22-1.17-4.67-1.76-7.34-1.76-4.96,0-9.49,1.37-13.61,4.11-4.11,2.74-7.38,6.64-9.79,11.7-2.41,5.06-3.62,11.04-3.62,17.96,0,2.81.36,5.68,1.08,8.61s1.84,5.63,3.38,8.08c1.53,2.45,3.54,4.42,6.02,5.92,2.48,1.5,5.51,2.25,9.1,2.25,3.26,0,6.15-.67,8.66-2.01,2.51-1.34,4.71-3.1,6.61-5.29,1.89-2.19,3.52-4.58,4.89-7.19Z"/>
        <path class="cls-1" d="M81.93,310.08c1.7,0,3.13.13,4.31.39,1.17.26,2.22.55,3.13.88l-5.87,30.15c-.07.33-.16.95-.29,1.86-.13.91-.15,1.75-.05,2.5.1.75.41,1.13.93,1.13.72,0,1.58-.44,2.59-1.32,1.01-.88,1.94-1.78,2.79-2.69.85-.91,1.3-1.4,1.37-1.47.13,0,.31.21.54.64.23.43.34.8.34,1.13-.26.46-.83,1.17-1.71,2.15s-1.94,1.99-3.18,3.03c-1.24,1.04-2.53,1.94-3.87,2.69-1.34.75-2.56,1.13-3.67,1.13-1.04,0-1.86-.47-2.45-1.42-.59-.95-.88-2.14-.88-3.57,0-.39.06-1.08.2-2.06.13-.98.29-1.99.49-3.04.13-.91.23-1.55.29-1.91.06-.36.13-.7.2-1.03-.46.85-1.19,1.99-2.2,3.43-1.01,1.44-2.17,2.87-3.48,4.31-1.31,1.44-2.69,2.66-4.16,3.67-1.47,1.01-2.89,1.52-4.26,1.52-2.61,0-4.67-1.04-6.17-3.13-1.5-2.09-2.25-4.8-2.25-8.12,0-4.18.86-8.12,2.59-11.84,1.73-3.72,3.96-7,6.7-9.84,2.74-2.84,5.69-5.07,8.86-6.71,3.16-1.63,6.22-2.45,9.15-2.45ZM77.53,313.9c-1.83,0-3.67.69-5.53,2.06-1.86,1.37-3.57,3.22-5.14,5.53-1.57,2.32-2.82,4.85-3.77,7.59-.95,2.74-1.42,5.48-1.42,8.22,0,3,.41,5.3,1.22,6.9.81,1.6,2.04,2.4,3.67,2.4,1.17,0,2.45-.65,3.82-1.96,1.37-1.3,2.69-3.02,3.97-5.14,1.27-2.12,2.4-4.42,3.38-6.9.98-2.48,1.7-4.86,2.15-7.15l2.06-10.08c-.46-.52-1.14-.9-2.06-1.13-.91-.23-1.7-.34-2.35-.34Z"/>
        <path class="cls-1" d="M124.61,286.19c1.37,0,2.5.23,3.38.69.88.46,1.48,1.01,1.81,1.66v.88c-.07,1.04-.33,2.06-.78,3.03-.46.98-1.14,1.47-2.06,1.47-.85,0-1.55-.21-2.1-.64-.56-.42-1.09-.93-1.62-1.52-.33-.33-.69-.65-1.08-.98-.39-.33-.95-.49-1.66-.49-1.83,0-3.34,1.76-4.55,5.29-1.21,3.52-2.56,9.07-4.06,16.64h9.59c.2,0,.33.11.39.34.06.23.1.47.1.73,0,.46-.08.88-.24,1.27-.16.39-.38.78-.64,1.17h-9.89c-.46,2.81-.9,5.38-1.32,7.73s-.88,4.93-1.37,7.73c-.49,2.81-.98,5.63-1.47,8.47-.49,2.84-.96,5.47-1.42,7.88-.98,5.22-2.55,9.82-4.7,13.8-2.15,3.98-4.57,7.08-7.24,9.3-2.67,2.22-5.29,3.33-7.83,3.33-1.37,0-2.5-.24-3.38-.73-.88-.49-1.48-1.06-1.81-1.71v-.73c0-.23.03-.47.1-.73.13-.98.41-1.88.83-2.69.43-.82,1.06-1.22,1.91-1.22s1.53.23,2.06.69c.52.46,1.04.98,1.57,1.57.33.33.72.65,1.18.98.46.33,1.01.49,1.66.49,1.89,0,3.44-1.76,4.65-5.29,1.21-3.52,2.53-9.07,3.96-16.64l5.68-32.2h-8.12c-.13,0-.2-.1-.2-.29,0-.52.47-1.19,1.42-2.01.94-.81,1.94-1.22,2.98-1.22h4.5c1.04-5.22,2.63-9.79,4.75-13.7,2.12-3.92,4.52-6.95,7.19-9.1s5.29-3.23,7.83-3.23Z"/>
        <path class="cls-1" d="M143.3,310.08c2.48,0,4.14.64,4.99,1.91.85,1.27,1.27,2.63,1.27,4.06,0,1.83-.57,3.59-1.71,5.29-1.14,1.7-2.64,3.28-4.5,4.75-1.86,1.47-3.82,2.74-5.87,3.82-2.06,1.08-4.03,1.91-5.92,2.5-1.89.59-3.43.88-4.6.88-.07.13-.12.6-.15,1.42-.03.82-.05,1.36-.05,1.62,0,2.94.49,5.38,1.47,7.34.98,1.96,2.67,2.94,5.09,2.94,1.11,0,2.22-.31,3.33-.93,1.11-.62,2.15-1.35,3.13-2.2.98-.85,1.78-1.62,2.4-2.3.62-.69.96-1.06,1.03-1.13.13,0,.34.23.64.68.29.46.44.85.44,1.18-.33.52-.98,1.34-1.96,2.45-.98,1.11-2.15,2.29-3.52,3.52-1.37,1.24-2.84,2.29-4.4,3.13-1.57.85-3.1,1.27-4.6,1.27-3.39,0-6-1.21-7.83-3.62-1.83-2.41-2.74-5.84-2.74-10.28,0-3.52.73-6.98,2.2-10.38,1.47-3.39,3.38-6.43,5.73-9.1,2.35-2.68,4.94-4.81,7.78-6.41,2.84-1.6,5.63-2.4,8.37-2.4ZM127.15,330.83c.91,0,2.22-.34,3.92-1.03,1.7-.69,3.43-1.63,5.19-2.84,1.76-1.21,3.24-2.59,4.45-4.16,1.21-1.57,1.81-3.23,1.81-4.99,0-1.3-.44-2.27-1.32-2.89-.88-.62-1.78-.93-2.69-.93-1.63,0-3.12.64-4.45,1.91-1.34,1.27-2.5,2.84-3.48,4.7-.98,1.86-1.76,3.72-2.35,5.58-.59,1.86-.95,3.41-1.08,4.65ZM138.6,303.62c-.13,0-.29-.11-.49-.34-.2-.23-.29-.41-.29-.54,0-.2.41-.8,1.22-1.81.81-1.01,1.78-2.17,2.89-3.48,1.11-1.3,2.14-2.48,3.08-3.52.95-1.04,1.58-1.66,1.91-1.86.85-.59,2.02-.88,3.52-.88.65,0,1.43.2,2.35.59.91.39,1.37,1.14,1.37,2.25,0,.39-.47.96-1.42,1.71-.95.75-2.15,1.57-3.62,2.45-1.47.88-2.95,1.75-4.45,2.59-1.5.85-2.81,1.53-3.91,2.06-1.11.52-1.83.78-2.15.78Z"/>
        <path class="cls-1" d="M196.35,288.84c1.7,0,3.57-.03,5.63-.1,2.06-.06,4.39-.1,7-.1,2.74,0,5.24.41,7.49,1.22,2.25.82,4.05,2.09,5.38,3.82,1.34,1.73,2.01,3.96,2.01,6.71,0,3.2-.69,5.89-2.06,8.08-1.37,2.19-2.95,3.93-4.75,5.24-1.8,1.31-3.34,2.32-4.65,3.03,1.44.13,2.9.75,4.4,1.86,1.5,1.11,2.77,2.64,3.82,4.6,1.04,1.96,1.57,4.24,1.57,6.85,0,4.31-1.22,8.11-3.67,11.4-2.45,3.3-5.77,5.87-9.98,7.73-4.21,1.86-9.02,2.79-14.44,2.79h-20.46c-.2-.26-.23-.72-.1-1.37.13-.65.33-1.11.59-1.37.39,0,1.08-.05,2.06-.15.98-.1,1.92-.28,2.84-.54.91-.26,1.44-.55,1.57-.88.39-.78.72-1.79.98-3.03.26-1.24.52-2.58.78-4.01l7.93-40.82c.33-1.43.59-2.81.78-4.11.2-1.3.26-2.32.2-3.03,0-.39-.41-.69-1.22-.88-.82-.2-1.68-.34-2.59-.44-.91-.1-1.57-.15-1.96-.15-.13-.26-.15-.72-.05-1.37.1-.65.28-1.11.54-1.37,1.83.07,3.59.15,5.29.24,1.7.1,3.39.15,5.09.15ZM194.2,319.28l-4.21,21.53c-.07.46-.18,1.17-.34,2.15-.16.98-.26,1.93-.29,2.84-.03.91.02,1.5.15,1.76.52.78,1.35,1.26,2.5,1.42,1.14.16,2.53.24,4.16.24,4.89,0,8.94-1.61,12.14-4.84,3.2-3.23,4.8-7.81,4.8-13.75v-.2c0-.72-.08-1.7-.24-2.94-.16-1.24-.64-2.5-1.42-3.77-.78-1.27-2.1-2.33-3.96-3.18-1.86-.85-4.45-1.27-7.78-1.27h-5.48ZM194.89,316.34h9.01c2.15,0,4.09-.65,5.83-1.96,1.73-1.3,3.12-3.07,4.16-5.29,1.04-2.22,1.57-4.66,1.57-7.34,0-1.83-.33-3.51-.98-5.04-.65-1.53-1.78-2.79-3.38-3.77-1.6-.98-3.77-1.47-6.51-1.47-.52,0-1.37.05-2.55.15-1.17.1-1.89.38-2.15.83-.33.59-.64,1.57-.93,2.94-.29,1.37-.57,2.77-.83,4.21l-3.23,16.74Z"/>
        <path class="cls-1" d="M254.3,310.08c1.04,0,1.97.21,2.79.64.82.43,1.45.9,1.91,1.42.52.65.78,1.53.78,2.64,0,1.24-.29,2.25-.88,3.03-.59.78-1.44,1.17-2.55,1.17-1.04,0-1.99-.49-2.84-1.47-.39-.46-1.04-.69-1.96-.69-.85,0-1.93.72-3.23,2.15-1.31,1.44-2.63,3.33-3.96,5.68-1.34,2.35-2.56,4.88-3.67,7.59-1.11,2.71-1.89,5.3-2.35,7.78l-2.15,11.65c-1.04.2-2.12.29-3.23.29-1.18,0-2.35-.1-3.52-.29l5.68-30.83c.06-.33.15-.86.25-1.62.1-.75.15-1.26.15-1.52v-.2c0-.46-.03-.93-.1-1.42-.07-.49-.33-.73-.78-.73-.65,0-1.5.44-2.55,1.32-1.04.88-1.97,1.78-2.79,2.69-.82.91-1.29,1.44-1.42,1.57-.13,0-.31-.24-.54-.73-.23-.49-.34-.86-.34-1.13.26-.46.81-1.17,1.66-2.15.85-.98,1.86-1.99,3.03-3.03,1.17-1.04,2.41-1.94,3.72-2.69,1.3-.75,2.51-1.13,3.62-1.13,1.04,0,1.92.47,2.64,1.42.72.95,1.08,2.14,1.08,3.57,0,.39-.08,1.08-.24,2.06-.16.98-.34,1.99-.54,3.03-.26,1.57-.52,2.9-.78,4.01-.26,1.11-.56,2.45-.88,4.01.65-1.57,1.53-3.38,2.64-5.43,1.11-2.06,2.33-4.05,3.67-5.97,1.34-1.92,2.67-3.52,4.01-4.8,1.34-1.27,2.56-1.91,3.67-1.91Z"/>
        <path class="cls-1" d="M283.67,342.18c.33-1.63.62-3.02.88-4.16.26-1.14.55-2.53.88-4.16-.59,1.37-1.63,3.07-3.13,5.09-1.5,2.02-3.2,4.06-5.09,6.12-1.89,2.06-3.82,3.77-5.78,5.14-1.96,1.37-3.72,2.06-5.29,2.06-1.83,0-3.07-.69-3.72-2.06-.65-1.37-.98-2.97-.98-4.8,0-1.3.15-2.94.44-4.89.29-1.96.57-3.62.83-4.99l3.23-14.68c.06-.33.13-.86.2-1.62.06-.75.1-1.26.1-1.52v-.2c0-.46-.03-.93-.1-1.42-.07-.49-.33-.73-.78-.73-.65,0-1.5.44-2.55,1.32-1.04.88-1.97,1.78-2.79,2.69-.82.91-1.29,1.44-1.42,1.57-.13,0-.31-.24-.54-.73-.23-.49-.34-.86-.34-1.13.26-.46.82-1.17,1.66-2.15.85-.98,1.86-1.99,3.03-3.03,1.17-1.04,2.41-1.94,3.72-2.69,1.3-.75,2.51-1.13,3.62-1.13,1.04,0,1.92.47,2.64,1.42.72.95,1.08,2.14,1.08,3.57,0,.39-.07,1.08-.2,2.06-.13.98-.29,1.99-.49,3.03l-3.33,15.76c-.07.46-.2,1.31-.39,2.54-.2,1.24-.29,2.12-.29,2.64,0,1.04.08,1.99.24,2.84.16.85.67,1.27,1.52,1.27s2.09-.69,3.72-2.06c1.63-1.37,3.38-3.21,5.24-5.53,1.86-2.32,3.54-4.9,5.04-7.73,1.5-2.84,2.54-5.76,3.13-8.76.39-1.96.75-3.69,1.08-5.19.33-1.5.69-3.26,1.08-5.29.85-.26,1.83-.39,2.94-.39.52,0,1.13.03,1.81.1.69.07,1.32.16,1.91.29l-5.97,30.83c-.07.46-.13,1.03-.2,1.71-.07.69-.1,1.16-.1,1.42v.2c0,.46.03.93.1,1.42.06.49.33.73.78.73.72,0,1.58-.44,2.59-1.32,1.01-.88,1.94-1.78,2.79-2.69.85-.91,1.3-1.4,1.37-1.47.13,0,.31.21.54.64.23.43.34.8.34,1.13-.26.46-.83,1.17-1.71,2.15-.88.98-1.94,1.99-3.18,3.03-1.24,1.04-2.53,1.94-3.87,2.69-1.34.75-2.56,1.13-3.67,1.13-1.04,0-1.86-.47-2.45-1.42-.59-.95-.88-2.14-.88-3.57,0-.39.06-1.08.2-2.06.13-.98.29-1.99.49-3.04Z"/>
        <path class="cls-1" d="M316.65,320.16l-1.76,8.03c.26-.46.86-1.37,1.81-2.74.95-1.37,2.12-2.92,3.52-4.65,1.4-1.73,2.9-3.41,4.5-5.04,1.6-1.63,3.18-2.98,4.75-4.06s2.97-1.62,4.21-1.62c2.22,0,3.75.57,4.6,1.71.85,1.14,1.27,2.69,1.27,4.65,0,1.44-.13,3.12-.39,5.04-.26,1.93-.55,3.7-.88,5.33l-3.23,14.68c-.07.46-.15,1.03-.24,1.71-.1.69-.15,1.16-.15,1.42,0,.46.05.96.15,1.52.1.55.37.83.83.83.72,0,1.58-.44,2.59-1.32,1.01-.88,1.94-1.78,2.79-2.69.85-.91,1.3-1.4,1.37-1.47.13,0,.31.21.54.64.23.43.34.8.34,1.13-.26.46-.85,1.17-1.76,2.15-.91.98-1.99,1.99-3.23,3.03-1.24,1.04-2.53,1.94-3.87,2.69-1.34.75-2.56,1.13-3.67,1.13-1.04,0-1.84-.47-2.4-1.42-.55-.95-.83-2.14-.83-3.57,0-.39.06-1.08.2-2.06.13-.98.29-1.99.49-3.04l3.33-15.76c.13-.46.28-1.3.44-2.55.16-1.24.24-2.12.24-2.64,0-1.24-.08-2.23-.24-2.99-.16-.75-.7-1.13-1.62-1.13-.85,0-2.14.62-3.87,1.86-1.73,1.24-3.54,2.94-5.43,5.09-1.89,2.15-3.61,4.6-5.14,7.34-1.53,2.74-2.59,5.61-3.18,8.61-.46,2.28-.85,4.23-1.18,5.82-.33,1.6-.75,3.54-1.27,5.82-1.04.26-2.19.39-3.43.39-1.17,0-2.29-.13-3.33-.39l6.26-30.83c.06-.33.15-.86.24-1.62.1-.75.15-1.26.15-1.52v-.2c0-.46-.03-.93-.1-1.42-.07-.49-.33-.73-.78-.73-.65,0-1.5.44-2.54,1.32-1.04.88-1.97,1.78-2.79,2.69-.82.91-1.29,1.44-1.42,1.57-.13,0-.33-.24-.59-.73-.26-.49-.39-.86-.39-1.13.26-.46.83-1.17,1.71-2.15.88-.98,1.91-1.99,3.08-3.03,1.18-1.04,2.41-1.94,3.72-2.69,1.3-.75,2.51-1.13,3.62-1.13,1.04,0,1.92.47,2.64,1.42.72.95,1.08,2.14,1.08,3.57,0,.39-.07,1.08-.2,2.06-.13.98-.33,1.99-.59,3.03Z"/>
        <path class="cls-1" d="M370.19,310.08c1.5,0,2.69.28,3.57.83.88.55,1.65,1.09,2.3,1.61.13.2.31.54.54,1.03.23.49.34,1,.34,1.52,0,1.04-.26,2.02-.78,2.94-.52.91-1.34,1.37-2.45,1.37-1.5,0-2.64-.65-3.43-1.96-.46-.78-1.06-1.55-1.81-2.3-.75-.75-1.81-1.13-3.18-1.13-1.76,0-3.54.96-5.33,2.89-1.8,1.93-3.3,4.55-4.5,7.88-1.21,3.33-1.81,7.15-1.81,11.45,0,1.11.13,2.48.39,4.11.26,1.63.85,3.08,1.76,4.36.91,1.27,2.38,1.91,4.4,1.91,1.11,0,2.22-.31,3.33-.93,1.11-.62,2.15-1.35,3.13-2.2.98-.85,1.78-1.62,2.4-2.3.62-.69.96-1.06,1.03-1.13.13,0,.34.23.64.68.29.46.44.85.44,1.18-.26.46-.87,1.24-1.81,2.35-.95,1.11-2.1,2.29-3.48,3.52-1.37,1.24-2.86,2.3-4.45,3.18-1.6.88-3.15,1.32-4.65,1.32-3.39,0-6.02-1.22-7.88-3.67-1.86-2.45-2.79-5.89-2.79-10.33,0-3.85.77-7.47,2.3-10.86,1.53-3.39,3.54-6.38,6.02-8.96,2.48-2.58,5.11-4.62,7.88-6.12,2.77-1.5,5.4-2.25,7.88-2.25Z"/>
        <path class="cls-1" d="M394.76,295.2l-4.89,24.96-1.66,8.81c.26-.46.88-1.39,1.86-2.79.98-1.4,2.17-3.02,3.57-4.85,1.4-1.83,2.92-3.59,4.55-5.29,1.63-1.7,3.23-3.12,4.8-4.26,1.57-1.14,2.97-1.71,4.21-1.71,1.89,0,3.24.6,4.06,1.81.82,1.21,1.22,2.73,1.22,4.55,0,1.63-.13,3.31-.39,5.04-.26,1.73-.59,3.51-.98,5.33l-3.13,14.68c-.07.2-.15.7-.24,1.52-.1.82-.15,1.36-.15,1.62,0,.46.05.96.15,1.52.1.55.37.83.83.83.72,0,1.58-.44,2.59-1.32,1.01-.88,1.92-1.78,2.74-2.69.82-.91,1.26-1.4,1.32-1.47.13,0,.33.21.59.64.26.43.39.8.39,1.13-.26.46-.85,1.17-1.76,2.15-.91.98-1.99,1.99-3.23,3.03-1.24,1.04-2.53,1.94-3.87,2.69-1.34.75-2.56,1.13-3.67,1.13-1.04,0-1.84-.47-2.4-1.42-.55-.95-.83-2.14-.83-3.57,0-.39.05-1.08.15-2.06.1-.98.28-1.99.54-3.04l3.33-15.76c.13-.46.28-1.3.44-2.55.16-1.24.24-2.12.24-2.64,0-1.11-.1-2.07-.29-2.89-.2-.82-.72-1.22-1.57-1.22s-2.1.67-3.77,2.01c-1.66,1.34-3.43,3.13-5.29,5.38s-3.54,4.75-5.04,7.49c-1.5,2.74-2.51,5.51-3.03,8.32-.26,1.44-.59,3.13-.98,5.09s-.85,4.05-1.37,6.26c-.46.13-1.01.23-1.66.29-.65.06-1.24.1-1.76.1-.46,0-.98-.03-1.57-.1-.59-.07-1.17-.16-1.76-.29l10.38-53.45c.13-.91.31-1.86.54-2.84.23-.98.34-1.73.34-2.25,0-.59-.36-1.01-1.08-1.27-.72-.26-1.52-.41-2.4-.44-.88-.03-1.62-.05-2.2-.05h-.2c-.13-.2-.15-.54-.05-1.03.1-.49.25-.83.44-1.03,2.67-.26,5.19-.75,7.54-1.47,2.35-.72,4.05-1.27,5.09-1.66.26.13.42.39.49.78.06.39.1.75.1,1.08,0,.39-.15,1.39-.44,2.98-.29,1.6-.57,2.99-.83,4.16Z"/>
        <path class="cls-1" d="M482.07,300.49c2.22,0,4.11.78,5.68,2.35,1.57,1.57,2.35,3.46,2.35,5.68,0,2.48-.64,4.72-1.91,6.7-1.27,1.99-2.94,3.75-4.99,5.29-2.06,1.53-4.27,2.86-6.66,3.97-2.38,1.11-4.75,2.06-7.1,2.84-2.35.78-4.4,1.37-6.17,1.76.26,6.72,1.96,11.75,5.09,15.07,3.13,3.33,7.44,4.99,12.92,4.99,2.94,0,5.77-.7,8.52-2.1,2.74-1.4,4.99-3.31,6.75-5.73,1.76-2.41,2.64-5.09,2.64-8.03,0-.85-.16-1.71-.49-2.59s-.65-1.45-.98-1.71c-1.57.52-3.2,1.21-4.89,2.06-1.7.85-3.12,1.83-4.26,2.94-1.14,1.11-1.71,2.38-1.71,3.82,0,.98.13,1.7.39,2.15-.2.07-.51.07-.93,0-.43-.06-.77-.23-1.03-.49-.52-.46-.98-1.19-1.37-2.2-.39-1.01-.59-2.11-.59-3.28,0-2.15.95-4.03,2.84-5.63,1.89-1.6,4.6-3.15,8.12-4.65,2.15-.91,4.36-2.04,6.61-3.38,2.25-1.34,4.31-2.95,6.17-4.85,1.86-1.89,3.29-4.13,4.31-6.7,1.01-2.58,1.42-5.53,1.22-8.86.46-.06.85.02,1.17.25.33.23.55.41.69.54.59,1.11,1.09,2.37,1.52,3.77.42,1.4.64,3.12.64,5.14,0,3.79-1.16,7.13-3.48,10.03-2.32,2.9-5.14,5.17-8.47,6.8.39.78.59,1.93.59,3.43,0,2.87-.73,5.65-2.2,8.32-1.47,2.68-3.48,5.06-6.02,7.15-2.55,2.09-5.43,3.75-8.66,4.99-3.23,1.24-6.61,1.86-10.13,1.86-4.11,0-7.88-.69-11.31-2.06-3.43-1.37-6.17-3.61-8.22-6.71-2.06-3.1-3.15-7.26-3.28-12.48-2.48.65-4.63,1.44-6.46,2.35-1.83.92-2.74,2.15-2.74,3.72,0,.85.23,1.47.69,1.86.46.39.88.75,1.27,1.08.46.39.86.82,1.22,1.27.36.46.54,1.08.54,1.86,0,1.37-.43,2.4-1.27,3.08-.85.68-1.83,1.03-2.94,1.03-.98,0-1.76-.16-2.35-.49-.65-.52-1.14-1.32-1.47-2.4-.33-1.08-.49-2.01-.49-2.79,0-3,.9-5.59,2.69-7.78,1.79-2.19,4.39-3.77,7.78-4.75.52-.13,1.08-.28,1.66-.44.59-.16,1.24-.34,1.96-.54.26-3.33,1.09-6.62,2.5-9.89,1.4-3.26,3.28-6.22,5.63-8.86s5.09-4.76,8.22-6.36c3.13-1.6,6.52-2.4,10.18-2.4ZM463.28,325.54c2.87-.98,5.68-2.19,8.42-3.62,2.74-1.43,5.01-3.13,6.8-5.09,1.79-1.96,2.69-4.21,2.69-6.75,0-1.7-.34-3.05-1.03-4.06-.69-1.01-1.94-1.52-3.77-1.52-2.09,0-4.1.9-6.02,2.69-1.93,1.8-3.54,4.27-4.85,7.44-1.31,3.17-2.06,6.8-2.25,10.91Z"/>
        <path class="cls-1" d="M561.36,288.84c1.7,0,3.57-.03,5.63-.1,2.06-.06,4.39-.1,7-.1,2.74,0,5.24.41,7.49,1.22,2.25.82,4.05,2.09,5.38,3.82,1.34,1.73,2.01,3.96,2.01,6.71,0,3.2-.69,5.89-2.06,8.08-1.37,2.19-2.95,3.93-4.75,5.24-1.8,1.31-3.34,2.32-4.65,3.03,1.44.13,2.9.75,4.4,1.86,1.5,1.11,2.77,2.64,3.82,4.6,1.04,1.96,1.57,4.24,1.57,6.85,0,4.31-1.22,8.11-3.67,11.4-2.45,3.3-5.77,5.87-9.98,7.73-4.21,1.86-9.02,2.79-14.44,2.79h-20.46c-.2-.26-.23-.72-.1-1.37.13-.65.33-1.11.59-1.37.39,0,1.08-.05,2.06-.15.98-.1,1.92-.28,2.84-.54.91-.26,1.44-.55,1.57-.88.39-.78.72-1.79.98-3.03.26-1.24.52-2.58.78-4.01l7.93-40.82c.33-1.43.59-2.81.78-4.11.2-1.3.26-2.32.2-3.03,0-.39-.41-.69-1.22-.88-.82-.2-1.68-.34-2.59-.44-.91-.1-1.57-.15-1.96-.15-.13-.26-.15-.72-.05-1.37.1-.65.28-1.11.54-1.37,1.83.07,3.59.15,5.29.24,1.7.1,3.39.15,5.09.15ZM559.21,319.28l-4.21,21.53c-.07.46-.18,1.17-.34,2.15-.16.98-.26,1.93-.29,2.84-.03.91.02,1.5.15,1.76.52.78,1.35,1.26,2.5,1.42,1.14.16,2.53.24,4.16.24,4.89,0,8.94-1.61,12.14-4.84,3.2-3.23,4.8-7.81,4.8-13.75v-.2c0-.72-.08-1.7-.24-2.94-.16-1.24-.64-2.5-1.42-3.77-.78-1.27-2.1-2.33-3.96-3.18-1.86-.85-4.45-1.27-7.78-1.27h-5.48ZM559.89,316.34h9.01c2.15,0,4.09-.65,5.83-1.96,1.73-1.3,3.12-3.07,4.16-5.29,1.04-2.22,1.57-4.66,1.57-7.34,0-1.83-.33-3.51-.98-5.04-.65-1.53-1.78-2.79-3.38-3.77-1.6-.98-3.77-1.47-6.51-1.47-.52,0-1.37.05-2.55.15-1.17.1-1.89.38-2.15.83-.33.59-.64,1.57-.93,2.94-.29,1.37-.57,2.77-.83,4.21l-3.23,16.74Z"/>
        <path class="cls-1" d="M619.11,310.08c1.7,0,3.13.13,4.31.39,1.17.26,2.22.55,3.13.88l-5.87,30.15c-.07.33-.16.95-.29,1.86-.13.91-.15,1.75-.05,2.5.1.75.41,1.13.93,1.13.72,0,1.58-.44,2.59-1.32,1.01-.88,1.94-1.78,2.79-2.69.85-.91,1.3-1.4,1.37-1.47.13,0,.31.21.54.64.23.43.34.8.34,1.13-.26.46-.83,1.17-1.71,2.15s-1.94,1.99-3.18,3.03c-1.24,1.04-2.53,1.94-3.87,2.69-1.34.75-2.56,1.13-3.67,1.13-1.04,0-1.86-.47-2.45-1.42-.59-.95-.88-2.14-.88-3.57,0-.39.06-1.08.2-2.06.13-.98.29-1.99.49-3.04.13-.91.23-1.55.29-1.91.06-.36.13-.7.2-1.03-.46.85-1.19,1.99-2.2,3.43-1.01,1.44-2.17,2.87-3.48,4.31-1.31,1.44-2.69,2.66-4.16,3.67-1.47,1.01-2.89,1.52-4.26,1.52-2.61,0-4.67-1.04-6.17-3.13-1.5-2.09-2.25-4.8-2.25-8.12,0-4.18.86-8.12,2.59-11.84,1.73-3.72,3.96-7,6.7-9.84,2.74-2.84,5.69-5.07,8.86-6.71,3.16-1.63,6.22-2.45,9.15-2.45ZM614.71,313.9c-1.83,0-3.67.69-5.53,2.06-1.86,1.37-3.57,3.22-5.14,5.53-1.57,2.32-2.82,4.85-3.77,7.59-.95,2.74-1.42,5.48-1.42,8.22,0,3,.41,5.3,1.22,6.9.81,1.6,2.04,2.4,3.67,2.4,1.17,0,2.45-.65,3.82-1.96,1.37-1.3,2.69-3.02,3.97-5.14,1.27-2.12,2.4-4.42,3.38-6.9.98-2.48,1.7-4.86,2.15-7.15l2.06-10.08c-.46-.52-1.14-.9-2.06-1.13-.91-.23-1.7-.34-2.35-.34Z"/>
        <path class="cls-1" d="M659.05,310.08c1.04,0,1.97.21,2.79.64.82.43,1.45.9,1.91,1.42.52.65.78,1.53.78,2.64,0,1.24-.29,2.25-.88,3.03-.59.78-1.44,1.17-2.55,1.17-1.04,0-1.99-.49-2.84-1.47-.39-.46-1.04-.69-1.96-.69-.85,0-1.93.72-3.23,2.15-1.31,1.44-2.63,3.33-3.96,5.68-1.34,2.35-2.56,4.88-3.67,7.59-1.11,2.71-1.89,5.3-2.35,7.78l-2.15,11.65c-1.04.2-2.12.29-3.23.29-1.18,0-2.35-.1-3.52-.29l5.68-30.83c.06-.33.15-.86.25-1.62.1-.75.15-1.26.15-1.52v-.2c0-.46-.03-.93-.1-1.42-.07-.49-.33-.73-.78-.73-.65,0-1.5.44-2.55,1.32-1.04.88-1.97,1.78-2.79,2.69-.82.91-1.29,1.44-1.42,1.57-.13,0-.31-.24-.54-.73-.23-.49-.34-.86-.34-1.13.26-.46.81-1.17,1.66-2.15.85-.98,1.86-1.99,3.03-3.03,1.17-1.04,2.41-1.94,3.72-2.69,1.3-.75,2.51-1.13,3.62-1.13,1.04,0,1.92.47,2.64,1.42.72.95,1.08,2.14,1.08,3.57,0,.39-.08,1.08-.24,2.06-.16.98-.34,1.99-.54,3.03-.26,1.57-.52,2.9-.78,4.01-.26,1.11-.56,2.45-.88,4.01.65-1.57,1.53-3.38,2.64-5.43,1.11-2.06,2.33-4.05,3.67-5.97,1.34-1.92,2.67-3.52,4.01-4.8,1.34-1.27,2.56-1.91,3.67-1.91Z"/>
      </g>
    </g>
  </g>
</svg>