<?xml version="1.0" encoding="UTF-8"?>
<svg id="Capa_2" data-name="Capa 2" xmlns="http://www.w3.org/2000/svg" xmlns:xlink="http://www.w3.org/1999/xlink" viewBox="0 0 2122.31 819.52">
  <defs>
    <style>
      .cls-1 {
        fill: #fff;
      }

      .cls-2 {
        filter: url(#outer-glow-1);
      }
    </style>
    <filter id="outer-glow-1" x="-51.46" y="-51.95" width="2225" height="923" filterUnits="userSpaceOnUse">
      <feOffset dx="0" dy="0"/>
      <feGaussianBlur result="blur" stdDeviation="17"/>
      <feFlood flood-color="#000" flood-opacity=".55"/>
      <feComposite in2="blur" operator="in"/>
      <feComposite in="SourceGraphic"/>
    </filter>
  </defs>
  <g id="Capa_1-2" data-name="Capa 1">
    <g class="cls-2">
      <g>
        <path class="cls-1" d="M4.52,491.6V90.4h101.51l126.44,329.47h3.04l124.61-329.47h97.26v401.19h-62.61l4.25-334.33h-4.86l-133.12,334.33h-60.79L68.35,157.27h-4.86l3.65,334.33H4.52Z"/>
        <path class="cls-1" d="M671.35,499.5c-30.39,0-57.35-6.49-80.85-19.45-23.51-12.97-41.74-31.81-54.71-56.53-12.98-24.71-19.45-54.91-19.45-90.57s6.78-67.47,20.36-91.79c13.57-24.31,32.01-42.64,55.31-55.01,23.3-12.36,49.54-18.54,78.72-18.54s56.73,6.38,80.24,19.15c23.5,12.76,42.04,31.51,55.62,56.22,13.57,24.73,20.36,55.32,20.36,91.79s-6.9,67.47-20.67,91.79c-13.78,24.31-32.43,42.55-55.93,54.71-23.51,12.16-49.84,18.24-79.02,18.24ZM673.78,447.83c18.63,0,34.34-4.35,47.11-13.07,12.77-8.71,22.59-21.37,29.48-37.99,6.89-16.61,10.33-36.26,10.33-58.96,0-24.31-3.65-45.18-10.94-62.61-7.29-17.42-17.63-30.79-31-40.12-13.37-9.32-30-13.98-49.85-13.98-17.43,0-32.73,4.26-45.89,12.76-13.17,8.51-23.2,20.97-30.09,37.39-6.89,16.41-10.33,36.58-10.33,60.48,0,36.47,8.1,64.95,24.31,85.41,16.2,20.47,38.5,30.7,66.87,30.7Z"/>
        <path class="cls-1" d="M759.88,62.85v50.74l-1.44.92c-53.24,33.88-121.34,33.68-174.38-.52l-.62-.4v-50.74h0c53.33,34.74,122.09,34.94,175.63.52l.82-.52Z"/>
        <path class="cls-1" d="M671.65,62.85c-8.46,0-15.67-3.07-21.62-9.23-5.96-6.14-8.94-13.64-8.94-22.49s2.97-16.72,8.94-22.49c5.96-5.77,13.16-8.65,21.62-8.65s15.66,2.88,21.62,8.65c5.96,5.76,8.94,13.26,8.94,22.49s-2.98,16.34-8.94,22.49c-5.96,6.15-13.17,9.23-21.62,9.23Z"/>
        <path class="cls-1" d="M880.45,491.6V62.44h65.65v243.15c14.59-8.51,28.77-18.13,42.55-28.87,13.77-10.73,26.44-21.98,37.99-33.74,11.55-11.75,21.67-23.4,30.39-34.95,8.71-11.55,15.5-22.38,20.36-32.52h76.59c-7.29,15.4-16.52,30.8-27.66,46.2-11.15,15.4-23.92,29.59-38.3,42.55-14.39,12.98-29.99,24.12-46.81,33.43-16.82,9.33-33.94,15.81-51.36,19.45v8.51c21.88-2.43,41.03-.51,57.45,5.77,16.41,6.29,30.59,15.5,42.55,27.66,11.95,12.16,22.38,26.14,31.3,41.94,8.91,15.81,17.42,32.22,25.53,49.24l17.63,41.33h-72.95l-12.16-28.57c-9.33-20.67-18.95-39.1-28.88-55.32-9.93-16.2-21.68-28.87-35.25-37.99-13.58-9.12-30.3-13.68-50.15-13.68h-18.84v135.55h-65.65Z"/>
        <path class="cls-1" d="M1321.76,499.5c-21.88,0-41.24-2.23-58.05-6.68-16.82-4.45-31.1-10.84-42.85-19.15-11.76-8.3-20.97-18.24-27.66-29.78-6.69-11.55-10.44-24.41-11.25-38.6l52.28-17.63c.4,11.76,4.26,22.19,11.55,31.31,7.29,9.12,17.72,16.32,31.31,21.58,13.57,5.27,29.88,7.9,48.93,7.9,22.28,0,39.51-3.65,51.67-10.94,12.15-7.29,18.24-17.42,18.24-30.39,0-10.13-3.35-18.03-10.03-23.71-6.69-5.67-16.21-10.33-28.57-13.98-12.37-3.65-26.85-7.09-43.46-10.33-14.59-2.83-29.28-6.38-44.07-10.64-14.8-4.26-28.57-9.82-41.33-16.72-12.76-6.88-22.8-16-30.09-27.35-7.29-11.34-10.94-25.53-10.94-42.55,0-18.63,4.96-34.95,14.89-48.93,9.93-13.98,24.62-25.02,44.07-33.13,19.45-8.1,42.55-12.16,69.3-12.16s48.83,3.76,67.47,11.25c18.63,7.5,33.53,18.24,44.68,32.22,11.14,13.98,17.93,30.3,20.36,48.93l-54.71,17.02c-.82-13.37-4.56-24.21-11.24-32.52-6.69-8.3-15.81-14.69-27.36-19.15-11.55-4.45-25.03-6.69-40.42-6.69-20.27,0-36.17,3.65-47.72,10.94-11.55,7.29-17.32,17.43-17.32,30.39,0,9.72,3.54,17.53,10.64,23.4,7.09,5.88,16.81,10.54,29.18,13.98,12.36,3.45,26.44,6.99,42.25,10.64,15.81,2.84,31.2,6.38,46.2,10.64,14.99,4.26,28.57,9.63,40.72,16.11,12.16,6.49,21.67,15.19,28.57,26.14,6.89,10.94,10.33,24.92,10.33,41.94,0,21.08-5.38,38.81-16.11,53.19-10.74,14.39-26.34,25.22-46.81,32.52-20.47,7.29-44.68,10.94-72.64,10.94Z"/>
        <path class="cls-1" d="M1507.76,491.6V63.05h66.86v98.48c0,8.92-.21,17.84-.61,26.75-.41,8.92-1.22,18.04-2.43,27.35-1.22,9.33-2.43,18.75-3.65,28.26-1.22,9.53-2.64,18.95-4.26,28.27h11.55c6.08-22.69,13.68-41.84,22.79-57.45,9.12-15.59,20.56-27.35,34.35-35.25,13.77-7.9,30.79-11.86,51.06-11.86,36.07,0,63.11,12.77,81.15,38.3,18.03,25.53,27.05,63.43,27.05,113.67v172.03h-66.26v-162.91c0-36.06-5.38-62.51-16.11-79.32-10.74-16.81-27.05-25.23-48.93-25.23-17.84,0-32.73,5.37-44.68,16.11-11.96,10.74-21.38,25.03-28.26,42.86-6.9,17.84-11.35,38.1-13.38,60.79v147.71h-66.26Z"/>
        <path class="cls-1" d="M1932.05,499.5c-17.84,0-33.54-3.45-47.11-10.33-13.58-6.89-24.42-16.92-32.52-30.09-8.11-13.16-12.16-29.48-12.16-48.93,0-16.2,2.94-30.09,8.82-41.64,5.87-11.55,14.89-21.17,27.05-28.88,12.16-7.69,27.45-14.18,45.89-19.45,18.44-5.26,40.42-9.52,65.96-12.77,14.59-2.43,26.34-4.56,35.25-6.38,8.91-1.82,15.5-5.06,19.76-9.72,4.25-4.66,6.38-11.44,6.38-20.36,0-13.77-4.86-25.63-14.59-35.56-9.73-9.93-25.13-14.89-46.2-14.89-11.76,0-23.2,2.03-34.35,6.08-11.15,4.06-20.97,10.64-29.48,19.76-8.51,9.12-14.19,21.38-17.02,36.78l-59.57-19.45c4.05-14.99,10.03-28.36,17.93-40.12,7.9-11.75,17.83-21.89,29.79-30.39,11.95-8.51,26.03-14.89,42.25-19.15,16.2-4.25,33.63-6.38,52.28-6.38,27.96,0,51.16,4.56,69.6,13.68,18.44,9.12,32.11,23.31,41.03,42.55,8.91,19.26,13.37,43.87,13.37,73.86v64.43c.4,13.37.81,27.56,1.22,42.55.4,15,1.22,29.79,2.43,44.38,1.22,14.59,2.63,28.78,4.26,42.55h-60.18c-1.22-12.16-2.34-24.82-3.34-37.99-1.02-13.16-1.93-26.23-2.74-39.21h-8.51c-6.08,15-14.29,29.08-24.62,42.25-10.33,13.17-23.01,23.61-37.99,31.31-15,7.69-32.63,11.55-52.88,11.55ZM1955.14,449.04c8.1,0,16.61-1.52,25.53-4.56,8.91-3.04,17.63-7.49,26.14-13.37,8.51-5.87,16.61-13.57,24.32-23.1,7.69-9.52,14.18-20.57,19.45-33.13v-57.14l15.19,3.04c-6.49,6.08-15,10.64-25.53,13.68-10.54,3.04-21.88,5.57-34.04,7.6-12.16,2.03-24.22,4.06-36.17,6.08-11.96,2.03-22.9,4.97-32.82,8.82-9.94,3.86-17.84,9.33-23.71,16.41-5.88,7.09-8.82,16.71-8.82,28.87,0,15,4.66,26.55,13.98,34.65,9.32,8.11,21.48,12.16,36.47,12.16Z"/>
      </g>
      <g>
        <path class="cls-1" d="M106.82,734.36c1.43,0,3.36.57,5.79,1.72-.14,1-.86,2.93-2.15,5.79-1.29,2.86-2.79,5.94-4.5,9.22-1.72,3.29-3.33,6.22-4.83,8.79-1.5,2.57-2.68,4.22-3.54,4.93-5.72,2.86-11.73,4.83-18.02,5.9-6.29,1.07-13.94,1.61-22.95,1.61-11.3,0-21.2-2.61-29.71-7.83-8.51-5.22-15.12-12.19-19.84-20.91-4.72-8.72-7.08-18.23-7.08-28.53,0-13.16,2.36-24.95,7.08-35.39,4.72-10.44,11.08-19.3,19.09-26.6,8.01-7.29,17.09-12.83,27.24-16.62,10.15-3.79,20.66-5.54,31.53-5.25,6.15.14,12.01.75,17.59,1.82,5.58,1.07,10.94,2.25,16.09,3.54-.14,2.43-.32,5.72-.54,9.87-.21,4.15-.43,8.15-.64,12.01-.21,3.86-.47,6.79-.75,8.79,0,.57-.57.86-1.72.86-.57,0-1.32-.03-2.25-.11-.93-.07-1.82-.32-2.68-.75.43-5.58-.75-10.62-3.54-15.12-2.79-4.51-6.62-8.04-11.48-10.62-4.86-2.57-10.22-3.86-16.09-3.86-10.87,0-20.8,3-29.81,9.01-9.01,6-16.16,14.55-21.45,25.63-5.29,11.08-7.93,24.2-7.93,39.36,0,6.15.78,12.44,2.36,18.88,1.57,6.43,4.04,12.33,7.4,17.69,3.36,5.36,7.75,9.69,13.19,12.98,5.43,3.29,12.08,4.93,19.95,4.93,7.15,0,13.48-1.46,18.98-4.4,5.5-2.93,10.33-6.79,14.48-11.58,4.15-4.79,7.72-10.04,10.72-15.77Z"/>
        <path class="cls-1" d="M179.53,679.46c3.72,0,6.86.29,9.44.86,2.57.57,4.86,1.22,6.86,1.93l-12.87,66.06c-.14.72-.36,2.07-.64,4.08-.29,2-.32,3.83-.11,5.47.22,1.65.89,2.47,2.04,2.47,1.57,0,3.47-.96,5.69-2.9,2.22-1.93,4.25-3.89,6.11-5.9,1.86-2,2.86-3.07,3-3.22.28,0,.68.46,1.18,1.39.5.93.75,1.75.75,2.47-.57,1-1.82,2.57-3.75,4.72-1.93,2.15-4.26,4.36-6.97,6.65-2.72,2.29-5.54,4.26-8.47,5.9-2.93,1.64-5.61,2.47-8.04,2.47-2.29,0-4.08-1.04-5.36-3.11-1.29-2.07-1.93-4.68-1.93-7.83,0-.86.14-2.36.43-4.5.29-2.15.64-4.36,1.07-6.65.29-2,.5-3.39.64-4.18.14-.79.29-1.54.43-2.25-1,1.86-2.61,4.37-4.83,7.51-2.22,3.15-4.76,6.29-7.61,9.44-2.86,3.15-5.9,5.83-9.11,8.04-3.22,2.22-6.33,3.32-9.33,3.32-5.72,0-10.23-2.29-13.51-6.86-3.29-4.58-4.93-10.51-4.93-17.8,0-9.15,1.89-17.8,5.69-25.95,3.79-8.15,8.69-15.34,14.69-21.56,6-6.22,12.47-11.12,19.41-14.69,6.93-3.57,13.62-5.36,20.06-5.36ZM169.88,687.82c-4.01,0-8.04,1.5-12.12,4.51-4.08,3-7.83,7.05-11.26,12.12-3.43,5.08-6.19,10.62-8.26,16.62-2.07,6-3.11,12.01-3.11,18.02,0,6.58.89,11.62,2.68,15.12,1.79,3.51,4.47,5.26,8.04,5.26,2.57,0,5.36-1.43,8.36-4.29,3-2.86,5.9-6.61,8.69-11.26,2.79-4.64,5.26-9.69,7.4-15.12,2.15-5.43,3.72-10.65,4.72-15.66l4.51-22.09c-1-1.14-2.5-1.96-4.51-2.47-2-.5-3.72-.75-5.15-.75Z"/>
        <path class="cls-1" d="M273.04,627.12c3,0,5.47.5,7.4,1.5,1.93,1,3.25,2.22,3.97,3.65v1.93c-.14,2.29-.72,4.51-1.72,6.65-1,2.15-2.5,3.22-4.5,3.22-1.86,0-3.4-.46-4.61-1.39-1.22-.93-2.4-2.04-3.54-3.32-.72-.72-1.5-1.43-2.36-2.15-.86-.71-2.07-1.07-3.65-1.07-4,0-7.33,3.86-9.97,11.58-2.65,7.72-5.62,19.88-8.9,36.46h21.02c.43,0,.71.25.86.75.14.5.21,1.04.21,1.61,0,1-.18,1.93-.54,2.79-.36.86-.82,1.72-1.39,2.57h-21.66c-1,6.15-1.97,11.8-2.9,16.95-.93,5.15-1.93,10.8-3,16.95-1.07,6.15-2.15,12.33-3.22,18.55-1.07,6.22-2.11,11.98-3.11,17.27-2.14,11.44-5.58,21.52-10.29,30.24-4.72,8.72-10.01,15.51-15.87,20.38-5.86,4.86-11.58,7.29-17.16,7.29-3,0-5.47-.54-7.4-1.61-1.93-1.07-3.25-2.33-3.97-3.75v-1.61c0-.5.07-1.04.21-1.61.29-2.15.9-4.11,1.82-5.9.93-1.79,2.33-2.68,4.18-2.68s3.36.5,4.5,1.5c1.15,1,2.29,2.15,3.43,3.43.72.71,1.58,1.43,2.58,2.15,1,.71,2.22,1.07,3.65,1.07,4.15,0,7.54-3.86,10.19-11.58,2.65-7.72,5.54-19.88,8.69-36.46l12.44-70.57h-17.8c-.29,0-.43-.21-.43-.64,0-1.14,1.04-2.61,3.11-4.4,2.07-1.79,4.25-2.68,6.54-2.68h9.87c2.29-11.44,5.75-21.45,10.4-30.03,4.64-8.58,9.9-15.23,15.76-19.95,5.86-4.72,11.58-7.08,17.16-7.08Z"/>
        <path class="cls-1" d="M314.01,679.46c5.43,0,9.08,1.39,10.94,4.18,1.86,2.79,2.79,5.76,2.79,8.9,0,4.01-1.25,7.86-3.76,11.58-2.5,3.72-5.79,7.19-9.87,10.4-4.08,3.22-8.36,6-12.87,8.36-4.51,2.36-8.83,4.18-12.98,5.47-4.15,1.29-7.51,1.93-10.08,1.93-.14.29-.25,1.32-.32,3.11-.07,1.79-.11,2.97-.11,3.54,0,6.43,1.07,11.8,3.22,16.08,2.15,4.29,5.86,6.43,11.15,6.43,2.43,0,4.86-.68,7.29-2.04,2.43-1.36,4.72-2.97,6.86-4.83,2.15-1.86,3.9-3.54,5.26-5.04,1.36-1.5,2.11-2.32,2.25-2.47.29,0,.75.5,1.4,1.5.64,1,.96,1.86.96,2.58-.72,1.15-2.14,2.93-4.29,5.36-2.15,2.43-4.72,5.01-7.72,7.72-3,2.72-6.22,5.01-9.65,6.86-3.43,1.86-6.79,2.79-10.08,2.79-7.44,0-13.16-2.65-17.16-7.94-4.01-5.29-6-12.8-6-22.52,0-7.72,1.61-15.3,4.83-22.74,3.22-7.43,7.4-14.08,12.55-19.95,5.15-5.86,10.83-10.54,17.05-14.05,6.22-3.5,12.33-5.26,18.34-5.26ZM278.62,724.93c2,0,4.86-.75,8.58-2.25,3.72-1.5,7.51-3.57,11.37-6.22,3.86-2.65,7.11-5.69,9.76-9.12,2.65-3.43,3.97-7.08,3.97-10.94,0-2.86-.97-4.97-2.9-6.33-1.93-1.36-3.9-2.04-5.9-2.04-3.58,0-6.83,1.4-9.76,4.18-2.93,2.79-5.47,6.22-7.61,10.3-2.14,4.08-3.86,8.15-5.15,12.23s-2.07,7.47-2.36,10.19ZM303.71,665.3c-.29,0-.64-.25-1.07-.75-.43-.5-.64-.89-.64-1.18,0-.43.89-1.75,2.68-3.97,1.79-2.22,3.89-4.75,6.33-7.61,2.43-2.86,4.68-5.43,6.76-7.72,2.07-2.29,3.47-3.65,4.18-4.08,1.86-1.29,4.43-1.93,7.72-1.93,1.43,0,3.14.43,5.15,1.29,2,.86,3,2.5,3,4.93,0,.86-1.04,2.11-3.11,3.75-2.08,1.65-4.72,3.43-7.94,5.36-3.22,1.93-6.47,3.83-9.76,5.69-3.29,1.86-6.15,3.36-8.58,4.5-2.43,1.15-4.01,1.72-4.72,1.72Z"/>
        <path class="cls-1" d="M430.26,632.91c3.72,0,7.83-.07,12.33-.22,4.5-.14,9.61-.21,15.34-.21,6.01,0,11.48.9,16.41,2.68,4.93,1.79,8.86,4.58,11.8,8.36,2.93,3.79,4.4,8.69,4.4,14.69,0,7.01-1.5,12.91-4.5,17.69-3,4.79-6.47,8.62-10.4,11.48-3.93,2.86-7.33,5.08-10.19,6.65,3.15.29,6.36,1.65,9.65,4.08,3.29,2.43,6.08,5.79,8.37,10.08,2.29,4.29,3.43,9.3,3.43,15.02,0,9.44-2.68,17.77-8.04,24.99-5.36,7.22-12.65,12.87-21.88,16.95-9.22,4.08-19.77,6.11-31.64,6.11h-44.83c-.43-.57-.5-1.57-.21-3,.29-1.43.72-2.43,1.29-3,.86,0,2.36-.11,4.51-.32,2.14-.22,4.21-.61,6.22-1.18,2-.57,3.15-1.21,3.43-1.93.86-1.72,1.57-3.93,2.14-6.65.57-2.72,1.14-5.65,1.72-8.79l17.38-89.44c.71-3.14,1.29-6.15,1.72-9.01.43-2.86.57-5.07.43-6.65,0-.86-.89-1.5-2.68-1.93-1.79-.43-3.68-.75-5.69-.97-2-.21-3.43-.32-4.29-.32-.29-.57-.32-1.57-.11-3,.22-1.43.61-2.43,1.18-3,4,.14,7.86.32,11.58.54,3.72.21,7.43.32,11.15.32ZM425.54,699.62l-9.22,47.19c-.14,1-.4,2.57-.75,4.72-.36,2.14-.57,4.22-.64,6.22-.07,2,.03,3.29.32,3.86,1.14,1.72,2.97,2.75,5.47,3.11,2.5.36,5.54.54,9.12.54,10.72,0,19.59-3.54,26.6-10.62,7-7.08,10.51-17.12,10.51-30.14v-.43c0-1.57-.18-3.72-.54-6.43-.36-2.72-1.39-5.47-3.11-8.26-1.72-2.79-4.61-5.11-8.69-6.97-4.08-1.86-9.76-2.79-17.05-2.79h-12.01ZM427.04,693.18h19.73c4.72,0,8.97-1.43,12.76-4.29,3.79-2.86,6.83-6.72,9.11-11.58,2.29-4.86,3.43-10.22,3.43-16.09,0-4-.72-7.68-2.15-11.05-1.43-3.36-3.9-6.11-7.4-8.26-3.51-2.15-8.26-3.22-14.26-3.22-1.15,0-3,.11-5.58.32-2.57.21-4.15.82-4.72,1.82-.72,1.29-1.4,3.43-2.04,6.43-.64,3-1.25,6.08-1.82,9.22l-7.08,36.68Z"/>
        <path class="cls-1" d="M557.23,679.46c2.29,0,4.32.47,6.11,1.39,1.79.93,3.18,1.97,4.18,3.11,1.14,1.43,1.72,3.36,1.72,5.79,0,2.72-.64,4.93-1.93,6.65-1.29,1.72-3.15,2.57-5.58,2.57-2.29,0-4.36-1.07-6.22-3.22-.86-1-2.29-1.5-4.29-1.5-1.86,0-4.22,1.58-7.08,4.72-2.86,3.15-5.76,7.29-8.69,12.44-2.93,5.15-5.61,10.69-8.04,16.62-2.43,5.94-4.15,11.62-5.15,17.05l-4.72,25.52c-2.29.43-4.65.64-7.08.64-2.58,0-5.15-.21-7.72-.64l12.44-67.56c.14-.71.32-1.89.54-3.54.21-1.64.32-2.75.32-3.33v-.43c0-1-.07-2.04-.21-3.11-.14-1.07-.72-1.61-1.72-1.61-1.43,0-3.29.97-5.58,2.9-2.29,1.93-4.33,3.9-6.11,5.9-1.79,2-2.83,3.15-3.11,3.43-.29,0-.68-.54-1.18-1.61-.5-1.07-.75-1.89-.75-2.47.57-1,1.79-2.57,3.65-4.72,1.86-2.14,4.08-4.36,6.65-6.65,2.57-2.29,5.29-4.25,8.15-5.9,2.86-1.64,5.5-2.47,7.94-2.47,2.29,0,4.22,1.04,5.79,3.11,1.57,2.08,2.36,4.69,2.36,7.83,0,.86-.18,2.36-.54,4.51-.36,2.15-.75,4.36-1.18,6.65-.57,3.43-1.15,6.37-1.72,8.79-.57,2.43-1.22,5.36-1.93,8.79,1.43-3.43,3.36-7.4,5.79-11.9,2.43-4.51,5.11-8.87,8.04-13.09,2.93-4.21,5.86-7.72,8.79-10.51,2.93-2.79,5.61-4.18,8.04-4.18Z"/>
        <path class="cls-1" d="M621.58,749.81c.71-3.57,1.36-6.61,1.93-9.11.57-2.5,1.21-5.54,1.93-9.12-1.29,3-3.58,6.72-6.86,11.15-3.29,4.43-7.01,8.9-11.15,13.41-4.15,4.5-8.37,8.26-12.66,11.26-4.29,3-8.15,4.51-11.58,4.51-4.01,0-6.72-1.5-8.15-4.51-1.43-3-2.15-6.5-2.15-10.51,0-2.86.32-6.43.97-10.72.64-4.29,1.25-7.94,1.82-10.94l7.08-32.17c.14-.71.29-1.89.43-3.54.14-1.64.21-2.75.21-3.33v-.43c0-1-.07-2.04-.21-3.11-.14-1.07-.72-1.61-1.72-1.61-1.43,0-3.29.97-5.58,2.9-2.29,1.93-4.33,3.9-6.11,5.9-1.79,2-2.83,3.15-3.11,3.43-.29,0-.68-.54-1.18-1.61-.5-1.07-.75-1.89-.75-2.47.57-1,1.79-2.57,3.65-4.72,1.86-2.14,4.08-4.36,6.65-6.65,2.57-2.29,5.29-4.25,8.15-5.9,2.86-1.64,5.5-2.47,7.94-2.47,2.29,0,4.21,1.04,5.79,3.11,1.57,2.08,2.36,4.69,2.36,7.83,0,.86-.14,2.36-.43,4.51-.29,2.15-.64,4.36-1.07,6.65l-7.29,34.53c-.14,1-.43,2.86-.86,5.57-.43,2.72-.64,4.65-.64,5.79,0,2.29.18,4.36.54,6.22.36,1.86,1.47,2.79,3.33,2.79s4.58-1.5,8.15-4.51c3.57-3,7.4-7.04,11.47-12.12,4.08-5.07,7.76-10.73,11.05-16.95,3.29-6.22,5.57-12.62,6.86-19.2.86-4.29,1.64-8.08,2.36-11.37.71-3.29,1.5-7.15,2.36-11.58,1.86-.57,4-.86,6.43-.86,1.14,0,2.47.07,3.97.22,1.5.14,2.9.36,4.18.64l-13.08,67.57c-.14,1-.29,2.25-.43,3.75-.14,1.5-.21,2.54-.21,3.11v.43c0,1,.07,2.04.21,3.11.14,1.07.71,1.61,1.72,1.61,1.57,0,3.47-.96,5.69-2.9,2.22-1.93,4.25-3.89,6.11-5.9,1.86-2,2.86-3.07,3-3.22.29,0,.68.46,1.18,1.39.5.93.75,1.75.75,2.47-.57,1-1.82,2.57-3.75,4.72-1.93,2.15-4.26,4.36-6.97,6.65-2.72,2.29-5.54,4.26-8.47,5.9-2.93,1.64-5.62,2.47-8.04,2.47-2.29,0-4.08-1.04-5.36-3.11-1.29-2.07-1.93-4.68-1.93-7.83,0-.86.14-2.36.43-4.5.28-2.15.64-4.36,1.07-6.65Z"/>
        <path class="cls-1" d="M693.86,701.55l-3.86,17.59c.57-1,1.89-3,3.97-6.01,2.07-3,4.64-6.4,7.72-10.19,3.07-3.79,6.36-7.47,9.87-11.05,3.5-3.57,6.97-6.54,10.4-8.9,3.43-2.36,6.5-3.54,9.22-3.54,4.86,0,8.22,1.25,10.08,3.75,1.86,2.5,2.79,5.9,2.79,10.19,0,3.15-.29,6.83-.86,11.05-.57,4.22-1.22,8.12-1.93,11.69l-7.08,32.17c-.14,1-.32,2.25-.54,3.75-.22,1.5-.32,2.54-.32,3.11,0,1,.11,2.11.32,3.33.21,1.22.82,1.82,1.82,1.82,1.57,0,3.47-.96,5.69-2.9,2.22-1.93,4.25-3.89,6.11-5.9,1.86-2,2.86-3.07,3-3.22.28,0,.68.46,1.18,1.39.5.93.75,1.75.75,2.47-.57,1-1.86,2.57-3.86,4.72-2,2.15-4.36,4.36-7.08,6.65-2.72,2.29-5.54,4.26-8.47,5.9-2.93,1.64-5.62,2.47-8.04,2.47-2.29,0-4.04-1.04-5.26-3.11-1.22-2.07-1.82-4.68-1.82-7.83,0-.86.14-2.36.43-4.5.29-2.15.64-4.36,1.07-6.65l7.29-34.53c.29-1,.61-2.86.97-5.58.36-2.72.54-4.64.54-5.79,0-2.72-.18-4.9-.54-6.54-.36-1.64-1.54-2.47-3.54-2.47-1.86,0-4.69,1.36-8.47,4.08-3.79,2.72-7.76,6.43-11.9,11.15-4.15,4.72-7.9,10.08-11.26,16.08-3.36,6.01-5.69,12.3-6.97,18.88-1,5.01-1.86,9.26-2.58,12.76-.72,3.51-1.64,7.76-2.79,12.76-2.29.57-4.79.86-7.51.86-2.57,0-5.01-.29-7.29-.86l13.73-67.56c.14-.71.32-1.89.54-3.54.21-1.64.32-2.75.32-3.33v-.43c0-1-.07-2.04-.22-3.11-.14-1.07-.72-1.61-1.72-1.61-1.43,0-3.29.97-5.57,2.9-2.29,1.93-4.33,3.9-6.11,5.9-1.79,2-2.83,3.15-3.11,3.43-.29,0-.72-.54-1.29-1.61-.57-1.07-.86-1.89-.86-2.47.57-1,1.82-2.57,3.75-4.72,1.93-2.14,4.18-4.36,6.75-6.65,2.58-2.29,5.29-4.25,8.15-5.9,2.86-1.64,5.51-2.47,7.94-2.47,2.29,0,4.22,1.04,5.79,3.11,1.57,2.08,2.36,4.69,2.36,7.83,0,.86-.14,2.36-.43,4.51-.29,2.15-.72,4.36-1.29,6.65Z"/>
        <path class="cls-1" d="M811.18,679.46c3.29,0,5.9.61,7.83,1.82,1.93,1.22,3.61,2.4,5.04,3.54.28.43.68,1.18,1.18,2.25.5,1.07.75,2.18.75,3.32,0,2.29-.57,4.44-1.72,6.43-1.15,2-2.93,3-5.36,3-3.29,0-5.79-1.43-7.51-4.29-1-1.72-2.33-3.4-3.97-5.04-1.65-1.64-3.97-2.47-6.97-2.47-3.86,0-7.76,2.11-11.69,6.33-3.94,4.22-7.22,9.97-9.87,17.26-2.65,7.29-3.97,15.66-3.97,25.1,0,2.43.29,5.44.86,9.01.57,3.58,1.86,6.76,3.86,9.55,2,2.79,5.22,4.18,9.65,4.18,2.43,0,4.86-.68,7.29-2.04,2.43-1.36,4.72-2.97,6.86-4.83,2.15-1.86,3.9-3.54,5.26-5.04,1.36-1.5,2.11-2.32,2.25-2.47.28,0,.75.5,1.39,1.5.64,1,.97,1.86.97,2.58-.57,1-1.9,2.72-3.97,5.15-2.07,2.43-4.61,5.01-7.61,7.72-3,2.72-6.26,5.04-9.76,6.97-3.51,1.93-6.9,2.9-10.19,2.9-7.44,0-13.19-2.68-17.27-8.04-4.08-5.36-6.11-12.9-6.11-22.63,0-8.44,1.68-16.37,5.04-23.81,3.36-7.43,7.75-13.98,13.19-19.63,5.43-5.65,11.19-10.11,17.27-13.41,6.08-3.29,11.83-4.93,17.27-4.93Z"/>
        <path class="cls-1" d="M865.02,646.85l-10.72,54.69-3.65,19.3c.57-1,1.93-3.04,4.08-6.11,2.14-3.07,4.75-6.61,7.83-10.62,3.07-4,6.4-7.86,9.97-11.58,3.57-3.72,7.08-6.83,10.51-9.33,3.43-2.5,6.51-3.75,9.22-3.75,4.15,0,7.11,1.32,8.9,3.97,1.79,2.65,2.68,5.97,2.68,9.97,0,3.58-.29,7.26-.86,11.05-.57,3.79-1.29,7.69-2.15,11.69l-6.86,32.17c-.14.43-.32,1.54-.54,3.32-.22,1.79-.32,2.97-.32,3.54,0,1,.11,2.11.32,3.33.21,1.22.82,1.82,1.82,1.82,1.57,0,3.47-.96,5.69-2.9,2.22-1.93,4.22-3.89,6-5.9,1.79-2,2.75-3.07,2.9-3.22.29,0,.71.46,1.29,1.39.57.93.86,1.75.86,2.47-.57,1-1.86,2.57-3.86,4.72-2,2.15-4.36,4.36-7.08,6.65-2.72,2.29-5.54,4.26-8.47,5.9-2.93,1.64-5.62,2.47-8.04,2.47-2.29,0-4.04-1.04-5.26-3.11-1.22-2.07-1.82-4.68-1.82-7.83,0-.86.11-2.36.32-4.5.22-2.15.61-4.36,1.18-6.65l7.29-34.53c.29-1,.61-2.86.97-5.58.36-2.72.54-4.64.54-5.79,0-2.43-.21-4.54-.64-6.33-.43-1.79-1.57-2.68-3.43-2.68s-4.61,1.47-8.26,4.4c-3.65,2.93-7.51,6.86-11.58,11.8-4.08,4.93-7.76,10.4-11.05,16.41-3.29,6-5.51,12.08-6.65,18.23-.57,3.15-1.29,6.86-2.15,11.15-.86,4.29-1.86,8.87-3,13.73-1,.29-2.22.5-3.65.64-1.43.14-2.72.21-3.86.21-1,0-2.15-.07-3.43-.21-1.29-.14-2.57-.36-3.86-.64l22.74-117.11c.28-2,.68-4.08,1.18-6.22.5-2.14.75-3.79.75-4.93,0-1.29-.79-2.22-2.36-2.79-1.58-.57-3.33-.89-5.26-.97-1.93-.07-3.54-.11-4.83-.11h-.43c-.29-.43-.32-1.18-.11-2.25.22-1.07.54-1.82.97-2.25,5.86-.57,11.37-1.64,16.52-3.22,5.15-1.57,8.86-2.79,11.15-3.65.57.29.93.86,1.07,1.72.14.86.22,1.64.22,2.36,0,.86-.32,3.04-.97,6.54-.64,3.51-1.25,6.54-1.82,9.12Z"/>
        <path class="cls-1" d="M1056.34,658.44c4.86,0,9.01,1.72,12.44,5.15,3.43,3.43,5.15,7.58,5.15,12.44,0,5.44-1.39,10.33-4.18,14.69-2.79,4.36-6.43,8.22-10.94,11.58-4.5,3.36-9.37,6.26-14.59,8.69-5.22,2.43-10.4,4.5-15.55,6.22-5.15,1.72-9.65,3-13.51,3.86.57,14.73,4.29,25.74,11.15,33.03,6.86,7.29,16.3,10.94,28.31,10.94,6.43,0,12.65-1.54,18.66-4.61,6.01-3.07,10.94-7.26,14.8-12.55,3.86-5.29,5.79-11.15,5.79-17.59,0-1.86-.36-3.75-1.07-5.68-.72-1.93-1.43-3.18-2.14-3.75-3.43,1.15-7.01,2.65-10.72,4.5-3.72,1.86-6.83,4.01-9.33,6.43-2.5,2.43-3.75,5.22-3.75,8.37,0,2.14.28,3.72.86,4.72-.43.14-1.11.14-2.04,0-.93-.14-1.68-.5-2.25-1.07-1.15-1-2.14-2.61-3-4.83-.86-2.22-1.29-4.61-1.29-7.19,0-4.72,2.07-8.83,6.22-12.33,4.15-3.5,10.08-6.9,17.8-10.19,4.72-2,9.54-4.47,14.48-7.4,4.93-2.93,9.44-6.47,13.51-10.62,4.08-4.15,7.22-9.04,9.44-14.69,2.22-5.65,3.11-12.12,2.68-19.41,1-.14,1.86.04,2.57.54.71.5,1.21.89,1.5,1.18,1.29,2.43,2.39,5.18,3.33,8.26.93,3.08,1.39,6.83,1.39,11.26,0,8.29-2.54,15.62-7.61,21.98-5.08,6.37-11.26,11.33-18.55,14.91.86,1.72,1.29,4.22,1.29,7.51,0,6.3-1.61,12.37-4.83,18.23-3.22,5.86-7.61,11.08-13.19,15.66-5.58,4.58-11.9,8.22-18.98,10.94-7.08,2.72-14.48,4.08-22.2,4.08-9.01,0-17.26-1.5-24.77-4.5-7.51-3-13.51-7.9-18.02-14.69-4.5-6.79-6.9-15.9-7.18-27.35-5.44,1.43-10.15,3.15-14.16,5.15-4,2.01-6,4.72-6,8.15,0,1.86.5,3.22,1.5,4.08,1,.86,1.93,1.65,2.79,2.36,1,.86,1.89,1.79,2.68,2.79.78,1,1.18,2.36,1.18,4.08,0,3-.93,5.26-2.79,6.76-1.86,1.5-4.01,2.25-6.43,2.25-2.15,0-3.86-.36-5.15-1.07-1.43-1.14-2.5-2.9-3.22-5.26-.71-2.36-1.07-4.4-1.07-6.11,0-6.58,1.96-12.26,5.9-17.05,3.93-4.79,9.61-8.26,17.05-10.4,1.14-.29,2.36-.61,3.65-.97,1.29-.36,2.72-.75,4.29-1.18.57-7.29,2.39-14.51,5.47-21.66,3.07-7.15,7.19-13.62,12.33-19.41,5.15-5.79,11.15-10.44,18.02-13.94,6.86-3.5,14.3-5.26,22.31-5.26ZM1015.16,713.35c6.29-2.15,12.44-4.79,18.45-7.94,6-3.14,10.97-6.86,14.91-11.15,3.93-4.29,5.9-9.22,5.9-14.8,0-3.72-.75-6.68-2.25-8.9-1.5-2.21-4.26-3.32-8.26-3.32-4.58,0-8.97,1.97-13.19,5.9-4.22,3.93-7.76,9.37-10.62,16.3-2.86,6.94-4.5,14.91-4.93,23.92Z"/>
        <path class="cls-1" d="M1230.07,632.91c3.72,0,7.83-.07,12.33-.22,4.5-.14,9.61-.21,15.34-.21,6.01,0,11.48.9,16.41,2.68,4.93,1.79,8.86,4.58,11.8,8.36,2.93,3.79,4.4,8.69,4.4,14.69,0,7.01-1.5,12.91-4.5,17.69-3,4.79-6.47,8.62-10.4,11.48-3.93,2.86-7.33,5.08-10.19,6.65,3.15.29,6.36,1.65,9.65,4.08,3.29,2.43,6.08,5.79,8.37,10.08,2.29,4.29,3.43,9.3,3.43,15.02,0,9.44-2.68,17.77-8.04,24.99-5.36,7.22-12.65,12.87-21.88,16.95-9.22,4.08-19.77,6.11-31.64,6.11h-44.83c-.43-.57-.5-1.57-.21-3,.29-1.43.72-2.43,1.29-3,.86,0,2.36-.11,4.51-.32,2.14-.22,4.21-.61,6.22-1.18,2-.57,3.15-1.21,3.43-1.93.86-1.72,1.57-3.93,2.14-6.65.57-2.72,1.14-5.65,1.72-8.79l17.38-89.44c.71-3.14,1.29-6.15,1.72-9.01.43-2.86.57-5.07.43-6.65,0-.86-.89-1.5-2.68-1.93-1.79-.43-3.68-.75-5.69-.97-2-.21-3.43-.32-4.29-.32-.29-.57-.32-1.57-.11-3,.22-1.43.61-2.43,1.18-3,4,.14,7.86.32,11.58.54,3.72.21,7.43.32,11.15.32ZM1225.35,699.62l-9.22,47.19c-.14,1-.4,2.57-.75,4.72-.36,2.14-.57,4.22-.64,6.22-.07,2,.03,3.29.32,3.86,1.14,1.72,2.97,2.75,5.47,3.11,2.5.36,5.54.54,9.12.54,10.72,0,19.59-3.54,26.6-10.62,7-7.08,10.51-17.12,10.51-30.14v-.43c0-1.57-.18-3.72-.54-6.43-.36-2.72-1.39-5.47-3.11-8.26-1.72-2.79-4.61-5.11-8.69-6.97-4.08-1.86-9.76-2.79-17.05-2.79h-12.01ZM1226.85,693.18h19.73c4.72,0,8.97-1.43,12.76-4.29,3.79-2.86,6.83-6.72,9.11-11.58,2.29-4.86,3.43-10.22,3.43-16.09,0-4-.72-7.68-2.15-11.05-1.43-3.36-3.9-6.11-7.4-8.26-3.51-2.15-8.26-3.22-14.26-3.22-1.15,0-3,.11-5.58.32-2.57.21-4.15.82-4.72,1.82-.72,1.29-1.4,3.43-2.04,6.43-.64,3-1.25,6.08-1.82,9.22l-7.08,36.68Z"/>
        <path class="cls-1" d="M1356.62,679.46c3.72,0,6.86.29,9.44.86,2.57.57,4.86,1.22,6.86,1.93l-12.87,66.06c-.14.72-.36,2.07-.64,4.08-.29,2-.32,3.83-.11,5.47.22,1.65.89,2.47,2.04,2.47,1.57,0,3.47-.96,5.69-2.9,2.22-1.93,4.25-3.89,6.11-5.9,1.86-2,2.86-3.07,3-3.22.28,0,.68.46,1.18,1.39.5.93.75,1.75.75,2.47-.57,1-1.82,2.57-3.75,4.72-1.93,2.15-4.26,4.36-6.97,6.65-2.72,2.29-5.54,4.26-8.47,5.9-2.93,1.64-5.61,2.47-8.04,2.47-2.29,0-4.08-1.04-5.36-3.11-1.29-2.07-1.93-4.68-1.93-7.83,0-.86.14-2.36.43-4.5.29-2.15.64-4.36,1.07-6.65.29-2,.5-3.39.64-4.18.14-.79.29-1.54.43-2.25-1,1.86-2.61,4.37-4.83,7.51-2.22,3.15-4.76,6.29-7.61,9.44-2.86,3.15-5.9,5.83-9.11,8.04-3.22,2.22-6.33,3.32-9.33,3.32-5.72,0-10.23-2.29-13.51-6.86-3.29-4.58-4.93-10.51-4.93-17.8,0-9.15,1.89-17.8,5.69-25.95,3.79-8.15,8.69-15.34,14.69-21.56,6-6.22,12.47-11.12,19.41-14.69,6.93-3.57,13.62-5.36,20.06-5.36ZM1346.97,687.82c-4.01,0-8.04,1.5-12.12,4.51-4.08,3-7.83,7.05-11.26,12.12-3.43,5.08-6.19,10.62-8.26,16.62-2.07,6-3.11,12.01-3.11,18.02,0,6.58.89,11.62,2.68,15.12,1.79,3.51,4.47,5.26,8.04,5.26,2.57,0,5.36-1.43,8.36-4.29,3-2.86,5.9-6.61,8.69-11.26,2.79-4.64,5.26-9.69,7.4-15.12,2.15-5.43,3.72-10.65,4.72-15.66l4.51-22.09c-1-1.14-2.5-1.96-4.51-2.47-2-.5-3.72-.75-5.15-.75Z"/>
        <path class="cls-1" d="M1444.13,679.46c2.29,0,4.32.47,6.11,1.39,1.79.93,3.18,1.97,4.18,3.11,1.14,1.43,1.72,3.36,1.72,5.79,0,2.72-.64,4.93-1.93,6.65-1.29,1.72-3.15,2.57-5.58,2.57-2.29,0-4.36-1.07-6.22-3.22-.86-1-2.29-1.5-4.29-1.5-1.86,0-4.22,1.58-7.08,4.72-2.86,3.15-5.76,7.29-8.69,12.44-2.93,5.15-5.61,10.69-8.04,16.62-2.43,5.94-4.15,11.62-5.15,17.05l-4.72,25.52c-2.29.43-4.65.64-7.08.64-2.58,0-5.15-.21-7.72-.64l12.44-67.56c.14-.71.32-1.89.54-3.54.21-1.64.32-2.75.32-3.33v-.43c0-1-.07-2.04-.21-3.11-.14-1.07-.72-1.61-1.72-1.61-1.43,0-3.29.97-5.58,2.9-2.29,1.93-4.33,3.9-6.11,5.9-1.79,2-2.83,3.15-3.11,3.43-.29,0-.68-.54-1.18-1.61-.5-1.07-.75-1.89-.75-2.47.57-1,1.79-2.57,3.65-4.72,1.86-2.14,4.08-4.36,6.65-6.65,2.57-2.29,5.29-4.25,8.15-5.9,2.86-1.64,5.5-2.47,7.94-2.47,2.29,0,4.22,1.04,5.79,3.11,1.57,2.08,2.36,4.69,2.36,7.83,0,.86-.18,2.36-.54,4.51-.36,2.15-.75,4.36-1.18,6.65-.57,3.43-1.15,6.37-1.72,8.79-.57,2.43-1.22,5.36-1.93,8.79,1.43-3.43,3.36-7.4,5.79-11.9,2.43-4.51,5.11-8.87,8.04-13.09,2.93-4.21,5.86-7.72,8.79-10.51,2.93-2.79,5.61-4.18,8.04-4.18Z"/>
      </g>
    </g>
  </g>
</svg>